<svg width="500" height="500" viewBox="0 0 500 500" fill="none" xmlns="http://www.w3.org/2000/svg">
<rect width="500" height="500" rx="100" fill="white"/>
<path d="M148.009 57.0051C148.543 57.0042 148.543 57.0042 149.087 57.0033C150.279 57.0017 151.471 57.0032 152.663 57.0046C153.526 57.0042 154.389 57.0035 155.252 57.0026C157.625 57.0009 159.997 57.0017 162.369 57.0031C164.928 57.004 167.486 57.0025 170.044 57.0014C174.767 56.9996 179.489 56.9997 184.212 57.0009C188.575 57.002 192.938 57.0022 197.302 57.0017C197.736 57.0017 197.736 57.0017 198.179 57.0016C199.354 57.0015 200.529 57.0014 201.704 57.0012C212.727 56.9999 223.751 57.0011 234.774 57.0034C244.565 57.0054 254.356 57.0052 264.147 57.0032C275.148 57.0009 286.149 57 297.151 57.0013C298.324 57.0015 299.497 57.0016 300.67 57.0017C301.103 57.0018 301.103 57.0018 301.546 57.0018C305.905 57.0023 310.265 57.0018 314.624 57.0007C319.583 56.9995 324.542 56.9998 329.5 57.0021C332.03 57.0032 334.561 57.0036 337.091 57.0022C339.407 57.001 341.724 57.0017 344.04 57.0039C344.878 57.0044 345.716 57.0042 346.553 57.0031C357.295 56.9909 357.295 56.9909 361.402 58.7573C361.786 58.9062 362.17 59.0551 362.566 59.2086C368.154 61.4148 372.474 64.3202 376.69 68.5252C377.032 68.8569 377.374 69.1887 377.725 69.5305C381.634 73.5611 384.486 78.8513 386.033 84.2387C386.178 84.7409 386.323 85.2432 386.471 85.7606C386.954 87.7146 387.001 89.5745 386.99 91.5794C386.991 91.9644 386.992 92.3495 386.993 92.7462C386.997 94.0356 386.994 95.3249 386.991 96.6143C386.992 97.5485 386.993 98.4826 386.995 99.4167C386.998 101.983 386.997 104.55 386.994 107.116C386.992 109.6 386.994 112.084 386.997 114.568C387.001 119.962 387.001 125.357 386.998 130.751C386.996 135.473 386.995 140.196 386.996 144.918C386.997 145.388 386.997 145.388 386.997 145.867C386.997 147.139 386.997 148.411 386.998 149.683C387 161.615 386.998 173.548 386.993 185.48C386.989 196.075 386.99 206.671 386.994 217.266C386.998 229.173 387 241.08 386.997 252.986C386.997 254.257 386.997 255.527 386.996 256.797C386.996 257.11 386.996 257.423 386.996 257.745C386.995 262.462 386.996 267.179 386.999 271.896C387.001 277.263 387 282.63 386.996 287.997C386.994 290.734 386.993 293.472 386.996 296.21C386.998 298.718 386.997 301.226 386.992 303.734C386.991 304.639 386.992 305.545 386.994 306.45C387.018 318.127 387.018 318.127 385.131 323.285C384.981 323.705 384.831 324.124 384.676 324.556C384.564 324.855 384.451 325.154 384.335 325.462C383.914 325.462 383.494 325.462 383.061 325.462C382.963 325.143 382.865 324.825 382.764 324.496C381.942 321.919 381.006 319.538 379.753 317.142C379.255 316.152 378.841 315.162 378.442 314.128C376.401 308.872 373.772 303.825 371.249 298.786C371.101 298.49 370.952 298.193 370.8 297.888C368.65 293.596 366.447 289.347 364.051 285.185C363.466 284.164 362.89 283.137 362.314 282.111C354.699 268.576 346.427 255.827 333.797 246.47C333.559 246.292 333.322 246.114 333.078 245.931C328.076 242.229 322.467 239.664 316.809 237.127C316.402 236.941 315.995 236.756 315.575 236.566C312.226 235.099 308.805 234.134 305.263 233.251C304.828 233.141 304.828 233.141 304.385 233.029C295.078 230.675 285.879 229.323 276.269 229.372C275.19 229.376 274.112 229.372 273.033 229.366C261.484 229.357 250.248 231.458 239.309 235.085C238.531 235.335 237.749 235.573 236.966 235.803C233.575 236.802 230.37 238.041 227.147 239.489C226.649 239.712 226.152 239.934 225.639 240.164C213.919 245.504 202.993 253.036 193.674 261.916C192.599 262.927 191.622 263.74 190.252 264.307C195.243 244.901 207.924 226.366 221.679 212.07C221.997 211.738 221.997 211.738 222.321 211.4C225.193 208.417 228.174 205.698 231.447 203.152C231.845 202.835 231.845 202.835 232.252 202.513C236.341 199.266 240.479 196.356 245.037 193.808C245.287 193.665 245.537 193.521 245.795 193.373C251.833 189.91 258.192 187.365 264.918 185.58C265.487 185.428 265.487 185.428 266.067 185.273C271.556 183.894 277.055 183.451 282.701 183.483C283.144 183.485 283.144 183.485 283.595 183.486C293.458 183.535 302.077 185.73 311.288 189.137C305.211 177.76 299.04 166.44 292.735 155.188C288.266 147.212 283.811 139.231 279.496 131.17C277.621 127.679 275.683 124.227 273.721 120.783C272.242 118.18 270.819 115.554 269.435 112.899C268.092 110.338 266.667 107.826 265.236 105.314C263.547 102.349 261.897 99.3715 260.326 96.3423C258.515 92.8517 256.594 89.4295 254.649 86.012C252.957 83.0372 251.306 80.0455 249.708 77.0189C248.74 78.2549 247.949 79.5195 247.188 80.8926C246.951 81.3201 246.713 81.7477 246.468 82.1882C246.214 82.6459 245.961 83.1035 245.7 83.5751C245.162 84.5435 244.622 85.5118 244.083 86.4799C243.814 86.9632 243.544 87.4465 243.267 87.9445C242.171 89.902 241.058 91.8489 239.94 93.7942C237.832 97.47 235.757 101.164 233.69 104.863C232.03 107.831 230.362 110.795 228.686 113.755C224.681 120.832 220.713 127.931 216.768 135.042C214.579 138.99 212.371 142.926 210.146 146.854C208.46 149.83 206.786 152.813 205.116 155.799C202.527 160.428 199.921 165.048 197.307 169.664C196.614 170.89 195.921 172.117 195.229 173.344C193.208 176.923 191.185 180.501 189.14 184.067C187.097 187.628 185.091 191.205 183.12 194.807C181.426 197.9 179.694 200.97 177.955 204.037C176.25 207.046 174.555 210.061 172.866 213.079C172.62 213.519 172.373 213.96 172.119 214.413C171.368 215.756 170.618 217.098 169.867 218.44C166.984 223.596 164.099 228.749 161.187 233.888C159.178 237.435 157.191 240.994 155.215 244.559C153.018 248.522 150.803 252.476 148.569 256.419C144.995 262.729 141.455 269.059 137.939 275.403C136.941 277.203 135.937 278.999 134.928 280.793C131.509 286.875 128.144 292.981 124.85 299.131C124.544 299.702 124.544 299.702 124.232 300.284C122.192 304.098 120.211 307.906 118.479 311.872C118.126 312.633 117.772 313.394 117.418 314.155C116.395 316.388 115.539 318.67 114.705 320.979C114.233 322.064 114.233 322.064 113.383 322.489C111.98 319.496 112.047 316.249 112.055 313.009C112.053 312.429 112.053 312.429 112.052 311.837C112.05 310.542 112.051 309.247 112.052 307.952C112.052 307.014 112.051 306.076 112.049 305.137C112.047 302.559 112.047 299.982 112.047 297.404C112.047 294.909 112.046 292.414 112.044 289.919C112.04 284.187 112.038 278.454 112.038 272.721C112.038 268.294 112.037 263.867 112.036 259.439C112.035 258.164 112.035 256.89 112.035 255.615C112.035 255.298 112.034 254.981 112.034 254.655C112.032 245.741 112.03 236.828 112.03 227.914C112.03 227.578 112.03 227.242 112.03 226.896C112.03 225.193 112.03 223.49 112.03 221.787C112.03 221.449 112.03 221.111 112.03 220.762C112.03 220.078 112.03 219.394 112.03 218.71C112.031 208.07 112.028 197.429 112.022 186.788C112.015 174.831 112.012 162.874 112.012 150.917C112.012 149.642 112.012 148.366 112.012 147.091C112.012 146.777 112.012 146.463 112.012 146.14C112.012 141.089 112.009 136.039 112.006 130.989C112.002 125.912 112.002 120.835 112.004 115.759C112.006 113.009 112.006 110.259 112.002 107.51C111.999 104.992 111.999 102.474 112.003 99.9559C112.004 99.046 112.003 98.136 112.001 97.2261C111.974 86.2402 114.066 76.9856 121.958 68.8702C122.352 68.4761 122.746 68.0819 123.151 67.6758C123.488 67.3342 123.824 66.9926 124.171 66.6406C130.628 60.4528 139.074 56.978 148.009 57.0051Z" fill="#013FBA"/>
<path d="M269.669 282.993C270.005 283.063 270.34 283.133 270.686 283.206C284.355 286.136 297.558 293.314 308.315 302.104C308.55 302.295 308.784 302.486 309.026 302.682C318.714 310.623 328.148 320.705 333.372 332.257C333.372 332.677 333.372 333.098 333.372 333.531C277.173 333.531 220.974 333.531 163.072 333.531C164.03 330.657 164.03 330.657 164.847 329.301C165.119 328.848 165.119 328.848 165.398 328.386C165.594 328.069 165.79 327.753 165.992 327.426C166.198 327.092 166.404 326.758 166.616 326.414C169.935 321.119 173.703 316.253 178.057 311.773C178.573 311.241 179.086 310.707 179.596 310.171C186.108 303.348 193.198 298 201.294 293.186C201.559 293.027 201.825 292.867 202.098 292.703C211.671 287.049 222.708 283.446 233.693 281.95C235.239 281.771 235.239 281.771 236.543 281.294C247.584 279.854 258.835 280.65 269.669 282.993Z" fill="#20272F"/>
<path d="M71.12 396L85.4 356.8H95.032L109.312 396H100.408L90.16 366.264L79.912 396H71.12ZM77.336 387.432L79.576 380.936H100.128L102.312 387.432H77.336ZM126.18 396.672C123.268 396.672 120.692 396.037 118.452 394.768C116.25 393.499 114.514 391.763 113.244 389.56C112.012 387.357 111.396 384.837 111.396 382C111.396 379.088 112.012 376.531 113.244 374.328C114.514 372.088 116.25 370.333 118.452 369.064C120.692 367.757 123.268 367.104 126.18 367.104C129.876 367.104 132.975 368.075 135.476 370.016C138.015 371.957 139.62 374.664 140.292 378.136H131.388C131.052 376.941 130.418 376.008 129.484 375.336C128.551 374.664 127.431 374.328 126.124 374.328C124.892 374.328 123.81 374.645 122.876 375.28C121.98 375.877 121.271 376.755 120.748 377.912C120.226 379.032 119.964 380.357 119.964 381.888C119.964 383.045 120.114 384.091 120.412 385.024C120.711 385.957 121.122 386.76 121.644 387.432C122.204 388.104 122.858 388.627 123.604 389C124.351 389.336 125.191 389.504 126.124 389.504C127.02 389.504 127.804 389.355 128.476 389.056C129.186 388.757 129.783 388.328 130.268 387.768C130.791 387.208 131.164 386.517 131.388 385.696H140.292C139.62 389.056 138.015 391.725 135.476 393.704C132.938 395.683 129.839 396.672 126.18 396.672ZM146.239 396V367.776H153.575L154.303 371.416C155.199 370.109 156.375 369.064 157.831 368.28C159.324 367.496 161.041 367.104 162.983 367.104C164.364 367.104 165.615 367.291 166.735 367.664C167.855 368 168.844 368.523 169.703 369.232C170.561 369.904 171.271 370.763 171.831 371.808C172.913 370.352 174.295 369.213 175.975 368.392C177.655 367.533 179.484 367.104 181.463 367.104C184.001 367.104 186.092 367.608 187.735 368.616C189.415 369.624 190.665 371.08 191.487 372.984C192.308 374.888 192.719 377.203 192.719 379.928V396H184.375V380.656C184.375 378.603 183.964 377.016 183.143 375.896C182.359 374.739 181.089 374.16 179.335 374.16C178.215 374.16 177.225 374.44 176.367 375C175.508 375.56 174.836 376.344 174.351 377.352C173.903 378.36 173.679 379.573 173.679 380.992V396H165.335V380.656C165.335 378.603 164.924 377.016 164.103 375.896C163.281 374.739 161.956 374.16 160.127 374.16C159.081 374.16 158.129 374.44 157.271 375C156.449 375.56 155.796 376.344 155.311 377.352C154.863 378.36 154.639 379.573 154.639 380.992V396H146.239ZM213.051 396.672C210.139 396.672 207.582 396.075 205.379 394.88C203.176 393.648 201.44 391.949 200.171 389.784C198.939 387.581 198.323 385.061 198.323 382.224C198.323 379.312 198.939 376.717 200.171 374.44C201.403 372.163 203.12 370.371 205.323 369.064C207.526 367.757 210.083 367.104 212.995 367.104C215.832 367.104 218.315 367.72 220.443 368.952C222.571 370.184 224.232 371.864 225.427 373.992C226.659 376.083 227.275 378.509 227.275 381.272C227.275 381.645 227.256 382.075 227.219 382.56C227.219 383.008 227.182 383.475 227.107 383.96H204.315V379.088H218.707C218.632 377.52 218.054 376.269 216.971 375.336C215.926 374.365 214.619 373.88 213.051 373.88C211.856 373.88 210.774 374.16 209.803 374.72C208.832 375.28 208.048 376.12 207.451 377.24C206.891 378.36 206.611 379.779 206.611 381.496V383.176C206.611 384.483 206.854 385.64 207.339 386.648C207.862 387.656 208.59 388.44 209.523 389C210.494 389.56 211.632 389.84 212.939 389.84C214.171 389.84 215.179 389.597 215.963 389.112C216.784 388.589 217.419 387.936 217.867 387.152H226.435C225.912 388.944 225.016 390.568 223.747 392.024C222.478 393.443 220.928 394.581 219.099 395.44C217.27 396.261 215.254 396.672 213.051 396.672ZM256.109 396.672C253.496 396.672 251.2 396.187 249.221 395.216C247.242 394.208 245.693 392.733 244.573 390.792C243.49 388.851 242.949 386.48 242.949 383.68H251.293C251.293 384.837 251.461 385.827 251.797 386.648C252.17 387.469 252.693 388.104 253.365 388.552C254.037 388.963 254.877 389.168 255.885 389.168C256.856 389.168 257.658 388.981 258.293 388.608C258.928 388.197 259.394 387.619 259.693 386.872C259.992 386.125 260.141 385.229 260.141 384.184V356.8H268.541V384.184C268.541 388.253 267.402 391.352 265.125 393.48C262.885 395.608 259.88 396.672 256.109 396.672ZM285.998 396.672C283.646 396.672 281.649 396.187 280.006 395.216C278.401 394.245 277.169 392.827 276.31 390.96C275.489 389.056 275.078 386.741 275.078 384.016V367.776H283.478V383.176C283.478 385.267 283.907 386.872 284.766 387.992C285.625 389.075 287.006 389.616 288.91 389.616C290.067 389.616 291.094 389.355 291.99 388.832C292.923 388.309 293.633 387.544 294.118 386.536C294.641 385.528 294.902 384.296 294.902 382.84V367.776H303.302V396H295.966L295.294 391.52C294.473 393.051 293.278 394.301 291.71 395.272C290.142 396.205 288.238 396.672 285.998 396.672ZM327.209 396.672C325.828 396.672 324.577 396.504 323.457 396.168C322.374 395.832 321.404 395.365 320.545 394.768C319.724 394.133 319.014 393.424 318.417 392.64L317.465 396H310.017V355.68H318.417V371.472C319.313 370.203 320.47 369.157 321.889 368.336C323.308 367.515 325.062 367.104 327.153 367.104C329.729 367.104 332.025 367.757 334.041 369.064C336.094 370.333 337.718 372.088 338.913 374.328C340.108 376.531 340.705 379.069 340.705 381.944C340.705 384.744 340.108 387.264 338.913 389.504C337.718 391.744 336.113 393.499 334.097 394.768C332.081 396.037 329.785 396.672 327.209 396.672ZM325.137 389.336C326.481 389.336 327.676 389.019 328.721 388.384C329.804 387.749 330.644 386.891 331.241 385.808C331.838 384.688 332.137 383.4 332.137 381.944C332.137 380.488 331.838 379.2 331.241 378.08C330.644 376.923 329.804 376.027 328.721 375.392C327.676 374.757 326.481 374.44 325.137 374.44C323.756 374.44 322.524 374.776 321.441 375.448C320.396 376.083 319.574 376.96 318.977 378.08C318.38 379.163 318.081 380.451 318.081 381.944C318.081 383.363 318.38 384.632 318.977 385.752C319.574 386.872 320.396 387.749 321.441 388.384C322.524 389.019 323.756 389.336 325.137 389.336ZM346.702 396V367.776H355.102V396H346.702ZM350.902 364.528C349.408 364.528 348.195 364.099 347.262 363.24C346.328 362.381 345.862 361.299 345.862 359.992C345.862 358.648 346.328 357.547 347.262 356.688C348.195 355.829 349.408 355.4 350.902 355.4C352.432 355.4 353.664 355.829 354.598 356.688C355.568 357.547 356.054 358.648 356.054 359.992C356.054 361.299 355.568 362.381 354.598 363.24C353.664 364.099 352.432 364.528 350.902 364.528ZM361.944 396V355.68H370.344V396H361.944ZM390.967 396.672C388.055 396.672 385.498 396.075 383.295 394.88C381.092 393.648 379.356 391.949 378.087 389.784C376.855 387.581 376.239 385.061 376.239 382.224C376.239 379.312 376.855 376.717 378.087 374.44C379.319 372.163 381.036 370.371 383.239 369.064C385.442 367.757 387.999 367.104 390.911 367.104C393.748 367.104 396.231 367.72 398.359 368.952C400.487 370.184 402.148 371.864 403.343 373.992C404.575 376.083 405.191 378.509 405.191 381.272C405.191 381.645 405.172 382.075 405.135 382.56C405.135 383.008 405.098 383.475 405.023 383.96H382.231V379.088H396.623C396.548 377.52 395.97 376.269 394.887 375.336C393.842 374.365 392.535 373.88 390.967 373.88C389.772 373.88 388.69 374.16 387.719 374.72C386.748 375.28 385.964 376.12 385.367 377.24C384.807 378.36 384.527 379.779 384.527 381.496V383.176C384.527 384.483 384.77 385.64 385.255 386.648C385.778 387.656 386.506 388.44 387.439 389C388.41 389.56 389.548 389.84 390.855 389.84C392.087 389.84 393.095 389.597 393.879 389.112C394.7 388.589 395.335 387.936 395.783 387.152H404.351C403.828 388.944 402.932 390.568 401.663 392.024C400.394 393.443 398.844 394.581 397.015 395.44C395.186 396.261 393.17 396.672 390.967 396.672ZM424.696 396.672C421.784 396.672 419.227 396.075 417.024 394.88C414.821 393.648 413.085 391.949 411.816 389.784C410.584 387.581 409.968 385.061 409.968 382.224C409.968 379.312 410.584 376.717 411.816 374.44C413.048 372.163 414.765 370.371 416.968 369.064C419.171 367.757 421.728 367.104 424.64 367.104C427.477 367.104 429.96 367.72 432.088 368.952C434.216 370.184 435.877 371.864 437.072 373.992C438.304 376.083 438.92 378.509 438.92 381.272C438.92 381.645 438.901 382.075 438.864 382.56C438.864 383.008 438.827 383.475 438.752 383.96H415.96V379.088H430.352C430.277 377.52 429.699 376.269 428.616 375.336C427.571 374.365 426.264 373.88 424.696 373.88C423.501 373.88 422.419 374.16 421.448 374.72C420.477 375.28 419.693 376.12 419.096 377.24C418.536 378.36 418.256 379.779 418.256 381.496V383.176C418.256 384.483 418.499 385.64 418.984 386.648C419.507 387.656 420.235 388.44 421.168 389C422.139 389.56 423.277 389.84 424.584 389.84C425.816 389.84 426.824 389.597 427.608 389.112C428.429 388.589 429.064 387.936 429.512 387.152H438.08C437.557 388.944 436.661 390.568 435.392 392.024C434.123 393.443 432.573 394.581 430.744 395.44C428.915 396.261 426.899 396.672 424.696 396.672Z" fill="#0645C3"/>
<path d="M69.7 451.36C67.68 451.36 65.89 450.91 64.33 450.01C62.79 449.09 61.58 447.82 60.7 446.2C59.82 444.56 59.38 442.66 59.38 440.5C59.38 438.36 59.82 436.48 60.7 434.86C61.58 433.22 62.79 431.94 64.33 431.02C65.89 430.1 67.68 429.64 69.7 429.64C71.76 429.64 73.57 430.1 75.13 431.02C76.69 431.94 77.9 433.22 78.76 434.86C79.62 436.48 80.05 438.36 80.05 440.5C80.05 442.66 79.62 444.56 78.76 446.2C77.9 447.82 76.69 449.09 75.13 450.01C73.57 450.91 71.76 451.36 69.7 451.36ZM69.73 448.12C71.07 448.12 72.24 447.82 73.24 447.22C74.24 446.6 75.01 445.72 75.55 444.58C76.09 443.44 76.36 442.08 76.36 440.5C76.36 438.92 76.09 437.56 75.55 436.42C75.01 435.28 74.24 434.41 73.24 433.81C72.24 433.19 71.07 432.88 69.73 432.88C68.39 432.88 67.22 433.19 66.22 433.81C65.22 434.41 64.44 435.28 63.88 436.42C63.34 437.56 63.07 438.92 63.07 440.5C63.07 442.08 63.34 443.44 63.88 444.58C64.44 445.72 65.22 446.6 66.22 447.22C67.22 447.82 68.39 448.12 69.73 448.12ZM86.1475 451L81.7075 435.88H85.2775L88.3675 448.3L87.7075 448.27L91.1575 435.88H95.1775L98.6575 448.27H97.9975L101.088 435.88H104.658L100.218 451H96.4975L92.8075 438.19H93.5575L89.8675 451H86.1475ZM106.93 451V435.88H110.11L110.38 438.4C110.84 437.52 111.5 436.82 112.36 436.3C113.22 435.78 114.24 435.52 115.42 435.52C116.64 435.52 117.68 435.78 118.54 436.3C119.4 436.8 120.06 437.54 120.52 438.52C121 439.5 121.24 440.72 121.24 442.18V451H117.64V442.51C117.64 441.25 117.36 440.28 116.8 439.6C116.24 438.92 115.41 438.58 114.31 438.58C113.59 438.58 112.94 438.75 112.36 439.09C111.8 439.43 111.35 439.93 111.01 440.59C110.69 441.23 110.53 442.01 110.53 442.93V451H106.93ZM131.815 451.36C130.315 451.36 128.995 451.04 127.855 450.4C126.715 449.74 125.825 448.82 125.185 447.64C124.545 446.46 124.225 445.1 124.225 443.56C124.225 441.96 124.535 440.56 125.155 439.36C125.795 438.16 126.685 437.22 127.825 436.54C128.985 435.86 130.325 435.52 131.845 435.52C133.325 435.52 134.615 435.85 135.715 436.51C136.815 437.17 137.665 438.06 138.265 439.18C138.865 440.28 139.165 441.52 139.165 442.9C139.165 443.1 139.165 443.32 139.165 443.56C139.165 443.8 139.145 444.05 139.105 444.31H126.805V442H135.535C135.495 440.9 135.125 440.04 134.425 439.42C133.725 438.78 132.855 438.46 131.815 438.46C131.075 438.46 130.395 438.63 129.775 438.97C129.155 439.31 128.665 439.82 128.305 440.5C127.945 441.16 127.765 442 127.765 443.02V443.89C127.765 444.83 127.935 445.64 128.275 446.32C128.635 447 129.115 447.52 129.715 447.88C130.335 448.22 131.025 448.39 131.785 448.39C132.625 448.39 133.315 448.21 133.855 447.85C134.415 447.49 134.825 447.01 135.085 446.41H138.745C138.465 447.35 138.005 448.2 137.365 448.96C136.725 449.7 135.935 450.29 134.995 450.73C134.055 451.15 132.995 451.36 131.815 451.36ZM142.189 451V435.88H145.399L145.729 438.7C146.089 438.04 146.539 437.48 147.079 437.02C147.619 436.54 148.249 436.17 148.969 435.91C149.709 435.65 150.519 435.52 151.399 435.52V439.33H150.139C149.539 439.33 148.969 439.41 148.429 439.57C147.889 439.71 147.419 439.95 147.019 440.29C146.639 440.61 146.339 441.06 146.119 441.64C145.899 442.2 145.789 442.91 145.789 443.77V451H142.189ZM165.187 451L159.607 430H163.447L167.377 446.89L171.937 430H175.927L180.337 446.92L184.297 430H188.167L182.437 451H178.177L173.857 435.1L169.417 451H165.187ZM196.123 451.36C194.623 451.36 193.303 451.04 192.163 450.4C191.023 449.74 190.133 448.82 189.493 447.64C188.853 446.46 188.533 445.1 188.533 443.56C188.533 441.96 188.843 440.56 189.463 439.36C190.103 438.16 190.993 437.22 192.133 436.54C193.293 435.86 194.633 435.52 196.153 435.52C197.633 435.52 198.923 435.85 200.023 436.51C201.123 437.17 201.973 438.06 202.573 439.18C203.173 440.28 203.473 441.52 203.473 442.9C203.473 443.1 203.473 443.32 203.473 443.56C203.473 443.8 203.453 444.05 203.413 444.31H191.113V442H199.843C199.803 440.9 199.433 440.04 198.733 439.42C198.033 438.78 197.163 438.46 196.123 438.46C195.383 438.46 194.703 438.63 194.083 438.97C193.463 439.31 192.973 439.82 192.613 440.5C192.253 441.16 192.073 442 192.073 443.02V443.89C192.073 444.83 192.243 445.64 192.583 446.32C192.943 447 193.423 447.52 194.023 447.88C194.643 448.22 195.333 448.39 196.093 448.39C196.933 448.39 197.623 448.21 198.163 447.85C198.723 447.49 199.133 447.01 199.393 446.41H203.053C202.773 447.35 202.313 448.2 201.673 448.96C201.033 449.7 200.243 450.29 199.303 450.73C198.363 451.15 197.303 451.36 196.123 451.36ZM206.497 451V429.4H210.097V451H206.497ZM214.564 451V434.23C214.564 433.07 214.754 432.14 215.134 431.44C215.534 430.72 216.104 430.2 216.844 429.88C217.584 429.56 218.464 429.4 219.484 429.4H221.284V432.46H220.024C219.364 432.46 218.884 432.6 218.584 432.88C218.304 433.14 218.164 433.6 218.164 434.26V451H214.564ZM212.404 438.91V435.88H221.584V438.91H212.404ZM228.837 451.36C227.597 451.36 226.567 451.15 225.747 450.73C224.927 450.31 224.317 449.75 223.917 449.05C223.517 448.35 223.317 447.59 223.317 446.77C223.317 445.81 223.557 444.98 224.037 444.28C224.537 443.58 225.267 443.04 226.227 442.66C227.187 442.26 228.367 442.06 229.767 442.06H233.577C233.577 441.26 233.467 440.6 233.247 440.08C233.027 439.54 232.687 439.14 232.227 438.88C231.767 438.62 231.177 438.49 230.457 438.49C229.637 438.49 228.937 438.68 228.357 439.06C227.777 439.42 227.417 439.98 227.277 440.74H223.737C223.857 439.66 224.217 438.74 224.817 437.98C225.417 437.2 226.207 436.6 227.187 436.18C228.187 435.74 229.277 435.52 230.457 435.52C231.877 435.52 233.087 435.77 234.087 436.27C235.087 436.75 235.847 437.45 236.367 438.37C236.907 439.27 237.177 440.36 237.177 441.64V451H234.117L233.757 448.57C233.557 448.97 233.297 449.34 232.977 449.68C232.677 450.02 232.327 450.32 231.927 450.58C231.527 450.82 231.067 451.01 230.547 451.15C230.047 451.29 229.477 451.36 228.837 451.36ZM229.647 448.51C230.227 448.51 230.737 448.41 231.177 448.21C231.637 447.99 232.027 447.69 232.347 447.31C232.687 446.91 232.947 446.47 233.127 445.99C233.307 445.51 233.427 445 233.487 444.46V444.4H230.157C229.457 444.4 228.877 444.49 228.417 444.67C227.957 444.83 227.627 445.07 227.427 445.39C227.227 445.71 227.127 446.08 227.127 446.5C227.127 446.92 227.227 447.28 227.427 447.58C227.627 447.88 227.917 448.11 228.297 448.27C228.677 448.43 229.127 448.51 229.647 448.51ZM240.724 451V435.88H243.934L244.264 438.7C244.624 438.04 245.074 437.48 245.614 437.02C246.154 436.54 246.784 436.17 247.504 435.91C248.244 435.65 249.054 435.52 249.934 435.52V439.33H248.674C248.074 439.33 247.504 439.41 246.964 439.57C246.424 439.71 245.954 439.95 245.554 440.29C245.174 440.61 244.874 441.06 244.654 441.64C244.434 442.2 244.324 442.91 244.324 443.77V451H240.724ZM259.105 451.36C257.605 451.36 256.285 451.04 255.145 450.4C254.005 449.74 253.115 448.82 252.475 447.64C251.835 446.46 251.515 445.1 251.515 443.56C251.515 441.96 251.825 440.56 252.445 439.36C253.085 438.16 253.975 437.22 255.115 436.54C256.275 435.86 257.615 435.52 259.135 435.52C260.615 435.52 261.905 435.85 263.005 436.51C264.105 437.17 264.955 438.06 265.555 439.18C266.155 440.28 266.455 441.52 266.455 442.9C266.455 443.1 266.455 443.32 266.455 443.56C266.455 443.8 266.435 444.05 266.395 444.31H254.095V442H262.825C262.785 440.9 262.415 440.04 261.715 439.42C261.015 438.78 260.145 438.46 259.105 438.46C258.365 438.46 257.685 438.63 257.065 438.97C256.445 439.31 255.955 439.82 255.595 440.5C255.235 441.16 255.055 442 255.055 443.02V443.89C255.055 444.83 255.225 445.64 255.565 446.32C255.925 447 256.405 447.52 257.005 447.88C257.625 448.22 258.315 448.39 259.075 448.39C259.915 448.39 260.605 448.21 261.145 447.85C261.705 447.49 262.115 447.01 262.375 446.41H266.035C265.755 447.35 265.295 448.2 264.655 448.96C264.015 449.7 263.225 450.29 262.285 450.73C261.345 451.15 260.285 451.36 259.105 451.36ZM275.243 451L282.923 430H286.943L294.623 451H290.813L284.903 434.2L278.993 451H275.243ZM278.663 446.05L279.623 443.2H289.973L290.933 446.05H278.663ZM303.122 451.36C301.782 451.36 300.612 451.15 299.612 450.73C298.632 450.29 297.852 449.69 297.272 448.93C296.712 448.15 296.382 447.26 296.282 446.26H299.882C299.982 446.68 300.162 447.07 300.422 447.43C300.682 447.77 301.032 448.04 301.472 448.24C301.932 448.44 302.472 448.54 303.092 448.54C303.692 448.54 304.182 448.46 304.562 448.3C304.942 448.12 305.222 447.89 305.402 447.61C305.582 447.33 305.672 447.03 305.672 446.71C305.672 446.23 305.542 445.86 305.282 445.6C305.022 445.34 304.642 445.14 304.142 445C303.662 444.84 303.082 444.69 302.402 444.55C301.682 444.41 300.982 444.24 300.302 444.04C299.642 443.82 299.042 443.55 298.502 443.23C297.982 442.91 297.562 442.5 297.242 442C296.942 441.5 296.792 440.89 296.792 440.17C296.792 439.29 297.022 438.5 297.482 437.8C297.962 437.1 298.642 436.55 299.522 436.15C300.422 435.73 301.492 435.52 302.732 435.52C304.492 435.52 305.892 435.93 306.932 436.75C307.992 437.55 308.612 438.68 308.792 440.14H305.372C305.272 439.58 304.992 439.15 304.532 438.85C304.072 438.53 303.462 438.37 302.702 438.37C301.922 438.37 301.322 438.52 300.902 438.82C300.502 439.1 300.302 439.48 300.302 439.96C300.302 440.26 300.422 440.54 300.662 440.8C300.922 441.04 301.292 441.25 301.772 441.43C302.252 441.59 302.842 441.75 303.542 441.91C304.662 442.13 305.652 442.39 306.512 442.69C307.372 442.99 308.052 443.43 308.552 444.01C309.052 444.59 309.302 445.41 309.302 446.47C309.322 447.43 309.072 448.28 308.552 449.02C308.052 449.76 307.342 450.34 306.422 450.76C305.502 451.16 304.402 451.36 303.122 451.36ZM318.525 451.36C317.185 451.36 316.015 451.15 315.015 450.73C314.035 450.29 313.255 449.69 312.675 448.93C312.115 448.15 311.785 447.26 311.685 446.26H315.285C315.385 446.68 315.565 447.07 315.825 447.43C316.085 447.77 316.435 448.04 316.875 448.24C317.335 448.44 317.875 448.54 318.495 448.54C319.095 448.54 319.585 448.46 319.965 448.3C320.345 448.12 320.625 447.89 320.805 447.61C320.985 447.33 321.075 447.03 321.075 446.71C321.075 446.23 320.945 445.86 320.685 445.6C320.425 445.34 320.045 445.14 319.545 445C319.065 444.84 318.485 444.69 317.805 444.55C317.085 444.41 316.385 444.24 315.705 444.04C315.045 443.82 314.445 443.55 313.905 443.23C313.385 442.91 312.965 442.5 312.645 442C312.345 441.5 312.195 440.89 312.195 440.17C312.195 439.29 312.425 438.5 312.885 437.8C313.365 437.1 314.045 436.55 314.925 436.15C315.825 435.73 316.895 435.52 318.135 435.52C319.895 435.52 321.295 435.93 322.335 436.75C323.395 437.55 324.015 438.68 324.195 440.14H320.775C320.675 439.58 320.395 439.15 319.935 438.85C319.475 438.53 318.865 438.37 318.105 438.37C317.325 438.37 316.725 438.52 316.305 438.82C315.905 439.1 315.705 439.48 315.705 439.96C315.705 440.26 315.825 440.54 316.065 440.8C316.325 441.04 316.695 441.25 317.175 441.43C317.655 441.59 318.245 441.75 318.945 441.91C320.065 442.13 321.055 442.39 321.915 442.69C322.775 442.99 323.455 443.43 323.955 444.01C324.455 444.59 324.705 445.41 324.705 446.47C324.725 447.43 324.475 448.28 323.955 449.02C323.455 449.76 322.745 450.34 321.825 450.76C320.905 451.16 319.805 451.36 318.525 451.36ZM334.948 451.36C333.508 451.36 332.208 451.03 331.048 450.37C329.908 449.69 329.008 448.76 328.348 447.58C327.708 446.38 327.388 445.01 327.388 443.47C327.388 441.89 327.718 440.51 328.378 439.33C329.038 438.13 329.938 437.2 331.078 436.54C332.238 435.86 333.538 435.52 334.978 435.52C336.418 435.52 337.708 435.86 338.848 436.54C340.008 437.2 340.908 438.12 341.548 439.3C342.208 440.48 342.538 441.86 342.538 443.44C342.538 445.02 342.208 446.4 341.548 447.58C340.888 448.76 339.978 449.69 338.818 450.37C337.678 451.03 336.388 451.36 334.948 451.36ZM334.948 448.27C335.668 448.27 336.318 448.09 336.898 447.73C337.498 447.37 337.978 446.83 338.338 446.11C338.698 445.39 338.878 444.5 338.878 443.44C338.878 442.38 338.698 441.5 338.338 440.8C337.998 440.08 337.528 439.54 336.928 439.18C336.348 438.82 335.698 438.64 334.978 438.64C334.278 438.64 333.628 438.82 333.028 439.18C332.428 439.54 331.948 440.08 331.588 440.8C331.228 441.5 331.048 442.38 331.048 443.44C331.048 444.5 331.228 445.39 331.588 446.11C331.948 446.83 332.418 447.37 332.998 447.73C333.598 448.09 334.248 448.27 334.948 448.27ZM352.932 451.36C351.452 451.36 350.122 451.03 348.942 450.37C347.782 449.69 346.872 448.76 346.212 447.58C345.572 446.38 345.252 445.02 345.252 443.5C345.252 441.92 345.572 440.54 346.212 439.36C346.872 438.16 347.782 437.22 348.942 436.54C350.122 435.86 351.462 435.52 352.962 435.52C354.842 435.52 356.422 436.02 357.702 437.02C358.982 438 359.802 439.35 360.162 441.07H356.382C356.182 440.31 355.762 439.71 355.122 439.27C354.502 438.83 353.762 438.61 352.902 438.61C352.162 438.61 351.482 438.8 350.862 439.18C350.262 439.56 349.782 440.11 349.422 440.83C349.082 441.55 348.912 442.42 348.912 443.44C348.912 444.22 349.012 444.91 349.212 445.51C349.412 446.11 349.692 446.62 350.052 447.04C350.432 447.44 350.862 447.75 351.342 447.97C351.822 448.19 352.342 448.3 352.902 448.3C353.482 448.3 354.002 448.21 354.462 448.03C354.942 447.83 355.342 447.54 355.662 447.16C356.002 446.78 356.242 446.33 356.382 445.81H360.162C359.802 447.49 358.982 448.84 357.702 449.86C356.422 450.86 354.832 451.36 352.932 451.36ZM363.483 451V435.88H367.083V451H363.483ZM365.283 433.48C364.623 433.48 364.073 433.28 363.633 432.88C363.213 432.46 363.003 431.95 363.003 431.35C363.003 430.73 363.213 430.23 363.633 429.85C364.073 429.45 364.623 429.25 365.283 429.25C365.943 429.25 366.483 429.45 366.903 429.85C367.343 430.23 367.563 430.73 367.563 431.35C367.563 431.95 367.343 432.46 366.903 432.88C366.483 433.28 365.943 433.48 365.283 433.48ZM375.984 451.36C374.744 451.36 373.714 451.15 372.894 450.73C372.074 450.31 371.464 449.75 371.064 449.05C370.664 448.35 370.464 447.59 370.464 446.77C370.464 445.81 370.704 444.98 371.184 444.28C371.684 443.58 372.414 443.04 373.374 442.66C374.334 442.26 375.514 442.06 376.914 442.06H380.724C380.724 441.26 380.614 440.6 380.394 440.08C380.174 439.54 379.834 439.14 379.374 438.88C378.914 438.62 378.324 438.49 377.604 438.49C376.784 438.49 376.084 438.68 375.504 439.06C374.924 439.42 374.564 439.98 374.424 440.74H370.884C371.004 439.66 371.364 438.74 371.964 437.98C372.564 437.2 373.354 436.6 374.334 436.18C375.334 435.74 376.424 435.52 377.604 435.52C379.024 435.52 380.234 435.77 381.234 436.27C382.234 436.75 382.994 437.45 383.514 438.37C384.054 439.27 384.324 440.36 384.324 441.64V451H381.264L380.904 448.57C380.704 448.97 380.444 449.34 380.124 449.68C379.824 450.02 379.474 450.32 379.074 450.58C378.674 450.82 378.214 451.01 377.694 451.15C377.194 451.29 376.624 451.36 375.984 451.36ZM376.794 448.51C377.374 448.51 377.884 448.41 378.324 448.21C378.784 447.99 379.174 447.69 379.494 447.31C379.834 446.91 380.094 446.47 380.274 445.99C380.454 445.51 380.574 445 380.634 444.46V444.4H377.304C376.604 444.4 376.024 444.49 375.564 444.67C375.104 444.83 374.774 445.07 374.574 445.39C374.374 445.71 374.274 446.08 374.274 446.5C374.274 446.92 374.374 447.28 374.574 447.58C374.774 447.88 375.064 448.11 375.444 448.27C375.824 448.43 376.274 448.51 376.794 448.51ZM394.206 451C393.186 451 392.296 450.84 391.536 450.52C390.796 450.2 390.216 449.67 389.796 448.93C389.376 448.19 389.166 447.19 389.166 445.93V438.91H386.586V435.88H389.166L389.586 431.89H392.766V435.88H396.876V438.91H392.766V445.93C392.766 446.69 392.926 447.22 393.246 447.52C393.586 447.8 394.146 447.94 394.926 447.94H396.786V451H394.206ZM400.113 451V435.88H403.713V451H400.113ZM401.913 433.48C401.253 433.48 400.703 433.28 400.263 432.88C399.843 432.46 399.633 431.95 399.633 431.35C399.633 430.73 399.843 430.23 400.263 429.85C400.703 429.45 401.253 429.25 401.913 429.25C402.573 429.25 403.113 429.45 403.533 429.85C403.973 430.23 404.193 430.73 404.193 431.35C404.193 431.95 403.973 432.46 403.533 432.88C403.113 433.28 402.573 433.48 401.913 433.48ZM414.623 451.36C413.183 451.36 411.883 451.03 410.723 450.37C409.583 449.69 408.683 448.76 408.023 447.58C407.383 446.38 407.063 445.01 407.063 443.47C407.063 441.89 407.393 440.51 408.053 439.33C408.713 438.13 409.613 437.2 410.753 436.54C411.913 435.86 413.213 435.52 414.653 435.52C416.093 435.52 417.383 435.86 418.523 436.54C419.683 437.2 420.583 438.12 421.223 439.3C421.883 440.48 422.213 441.86 422.213 443.44C422.213 445.02 421.883 446.4 421.223 447.58C420.563 448.76 419.653 449.69 418.493 450.37C417.353 451.03 416.063 451.36 414.623 451.36ZM414.623 448.27C415.343 448.27 415.993 448.09 416.573 447.73C417.173 447.37 417.653 446.83 418.013 446.11C418.373 445.39 418.553 444.5 418.553 443.44C418.553 442.38 418.373 441.5 418.013 440.8C417.673 440.08 417.203 439.54 416.603 439.18C416.023 438.82 415.373 438.64 414.653 438.64C413.953 438.64 413.303 438.82 412.703 439.18C412.103 439.54 411.623 440.08 411.263 440.8C410.903 441.5 410.723 442.38 410.723 443.44C410.723 444.5 410.903 445.39 411.263 446.11C411.623 446.83 412.093 447.37 412.673 447.73C413.273 448.09 413.923 448.27 414.623 448.27ZM425.437 451V435.88H428.617L428.887 438.4C429.347 437.52 430.007 436.82 430.867 436.3C431.727 435.78 432.747 435.52 433.927 435.52C435.147 435.52 436.187 435.78 437.047 436.3C437.907 436.8 438.567 437.54 439.027 438.52C439.507 439.5 439.747 440.72 439.747 442.18V451H436.147V442.51C436.147 441.25 435.867 440.28 435.307 439.6C434.747 438.92 433.917 438.58 432.817 438.58C432.097 438.58 431.447 438.75 430.867 439.09C430.307 439.43 429.857 439.93 429.517 440.59C429.197 441.23 429.037 442.01 429.037 442.93V451H425.437Z" fill="#121821"/>
<line x1="71" y1="414.5" x2="447" y2="414.5" stroke="black"/>
</svg>
